<svg width="20" height="20" viewBox="0 0 20 20" fill="none" xmlns="http://www.w3.org/2000/svg">
<path fill-rule="evenodd" clip-rule="evenodd" d="M16.6667 4.06069L17.9687 16.3106C17.988 16.4061 18 16.5043 18 16.6061C18 17.3762 17.4033 18 16.6667 18H9.99999H3.33332C2.59666 18 1.99999 17.3762 1.99999 16.6061C1.99999 16.5043 2.01199 16.4061 2.03133 16.3106L3.33332 4.06069C3.33332 3.29054 3.92999 2.66675 4.66666 2.66675H9.99999H15.3333C16.07 2.66675 16.6667 3.29054 16.6667 4.06069ZM13.3333 6.84857V6.08748C13.7207 5.9439 14 5.56057 14 5.10614C14 4.52905 13.552 4.06069 13 4.06069C12.448 4.06069 12 4.52905 12 5.10614V6.84857C12 8.00136 11.1027 8.93948 9.99999 8.93948C8.89732 8.93948 7.99999 8.00136 7.99999 6.84857V5.10614C7.99999 4.52905 7.55199 4.06069 6.99999 4.06069C6.44799 4.06069 5.99999 4.52905 5.99999 5.10614C5.99999 5.56057 6.27932 5.9439 6.66666 6.08748V6.84857C6.66666 8.77011 8.16199 10.3334 9.99999 10.3334C11.838 10.3334 13.3333 8.77011 13.3333 6.84857Z" fill="#242424"/>
</svg>
